<?xml version="1.0" encoding="utf-8"?>
<!-- Generator: Adobe Illustrator 25.4.1, SVG Export Plug-In . SVG Version: 6.00 Build 0)  -->
<svg version="1.1" id="Layer_1" xmlns="http://www.w3.org/2000/svg" xmlns:xlink="http://www.w3.org/1999/xlink" x="0px" y="0px"
	 viewBox="0 0 200 200" style="enable-background:new 0 0 200 200;" xml:space="preserve">
<style type="text/css">
	.st0{fill:#2C2F33;}
	.st1{fill:#3C92CA;}
</style>
<g>
	<g>
		<g>
			<path class="st0" d="M142.39,119.57V60.4c0-0.87-0.74-1.57-1.65-1.57H78.37c-0.92,0-1.65,0.7-1.65,1.57v59.17
				c0,0.87,0.74,1.57,1.65,1.57h62.36C141.65,121.14,142.39,120.44,142.39,119.57z M139.08,118H80.02V61.97h59.05V118L139.08,118z"
				/>
			<path class="st0" d="M62.34,136.35h62.36c0.92,0,1.65-0.7,1.65-1.57s-0.74-1.57-1.65-1.57H63.99v-57.6
				c0-0.87-0.74-1.57-1.65-1.57c-0.92,0-1.65,0.7-1.65,1.57v59.17C60.68,135.65,61.42,136.35,62.34,136.35z"/>
			<path class="st1" d="M96.09,91.54h11.82v11.21c0,0.87,0.74,1.57,1.65,1.57c0.92,0,1.65-0.7,1.65-1.57V91.54h11.82
				c0.92,0,1.65-0.7,1.65-1.57s-0.74-1.57-1.65-1.57h-11.82V77.19c0-0.87-0.74-1.57-1.65-1.57c-0.92,0-1.65,0.7-1.65,1.57V88.4
				H96.09c-0.92,0-1.65,0.7-1.65,1.57S95.17,91.54,96.09,91.54z"/>
		</g>
	</g>
	<g>
	</g>
	<g>
	</g>
	<g>
	</g>
	<g>
	</g>
	<g>
	</g>
	<g>
	</g>
	<g>
	</g>
	<g>
	</g>
	<g>
	</g>
	<g>
	</g>
	<g>
	</g>
	<g>
	</g>
	<g>
	</g>
	<g>
	</g>
	<g>
	</g>
</g>
</svg>
